%TF.GenerationSoftware,KiCad,Pcbnew,5.1.9+dfsg1-1~bpo10+1*%
%TF.CreationDate,2022-02-02T01:19:32+08:00*%
%TF.ProjectId,MiniADSR 1.0.1 - Front,4d696e69-4144-4535-9220-312e302e3120,rev?*%
%TF.SameCoordinates,Original*%
%TF.FileFunction,Legend,Bot*%
%TF.FilePolarity,Positive*%
%FSLAX46Y46*%
G04 Gerber Fmt 4.6, Leading zero omitted, Abs format (unit mm)*
G04 Created by KiCad (PCBNEW 5.1.9+dfsg1-1~bpo10+1) date 2022-02-02 01:19:32*
%MOMM*%
%LPD*%
G01*
G04 APERTURE LIST*
%ADD10C,0.150000*%
G04 APERTURE END LIST*
D10*
X69202380Y-53916666D02*
X68202380Y-53916666D01*
X68916666Y-54250000D01*
X68202380Y-54583333D01*
X69202380Y-54583333D01*
X69202380Y-55059523D02*
X68535714Y-55059523D01*
X68202380Y-55059523D02*
X68250000Y-55011904D01*
X68297619Y-55059523D01*
X68250000Y-55107142D01*
X68202380Y-55059523D01*
X68297619Y-55059523D01*
X68535714Y-55535714D02*
X69202380Y-55535714D01*
X68630952Y-55535714D02*
X68583333Y-55583333D01*
X68535714Y-55678571D01*
X68535714Y-55821428D01*
X68583333Y-55916666D01*
X68678571Y-55964285D01*
X69202380Y-55964285D01*
X69202380Y-56440476D02*
X68535714Y-56440476D01*
X68202380Y-56440476D02*
X68250000Y-56392857D01*
X68297619Y-56440476D01*
X68250000Y-56488095D01*
X68202380Y-56440476D01*
X68297619Y-56440476D01*
X68916666Y-56869047D02*
X68916666Y-57345238D01*
X69202380Y-56773809D02*
X68202380Y-57107142D01*
X69202380Y-57440476D01*
X69202380Y-57773809D02*
X68202380Y-57773809D01*
X68202380Y-58011904D01*
X68250000Y-58154761D01*
X68345238Y-58250000D01*
X68440476Y-58297619D01*
X68630952Y-58345238D01*
X68773809Y-58345238D01*
X68964285Y-58297619D01*
X69059523Y-58250000D01*
X69154761Y-58154761D01*
X69202380Y-58011904D01*
X69202380Y-57773809D01*
X69154761Y-58726190D02*
X69202380Y-58869047D01*
X69202380Y-59107142D01*
X69154761Y-59202380D01*
X69107142Y-59250000D01*
X69011904Y-59297619D01*
X68916666Y-59297619D01*
X68821428Y-59250000D01*
X68773809Y-59202380D01*
X68726190Y-59107142D01*
X68678571Y-58916666D01*
X68630952Y-58821428D01*
X68583333Y-58773809D01*
X68488095Y-58726190D01*
X68392857Y-58726190D01*
X68297619Y-58773809D01*
X68250000Y-58821428D01*
X68202380Y-58916666D01*
X68202380Y-59154761D01*
X68250000Y-59297619D01*
X69202380Y-60297619D02*
X68726190Y-59964285D01*
X69202380Y-59726190D02*
X68202380Y-59726190D01*
X68202380Y-60107142D01*
X68250000Y-60202380D01*
X68297619Y-60250000D01*
X68392857Y-60297619D01*
X68535714Y-60297619D01*
X68630952Y-60250000D01*
X68678571Y-60202380D01*
X68726190Y-60107142D01*
X68726190Y-59726190D01*
X68535714Y-61392857D02*
X69202380Y-61630952D01*
X68535714Y-61869047D01*
X69202380Y-62773809D02*
X69202380Y-62202380D01*
X69202380Y-62488095D02*
X68202380Y-62488095D01*
X68345238Y-62392857D01*
X68440476Y-62297619D01*
X68488095Y-62202380D01*
X69107142Y-63202380D02*
X69154761Y-63249999D01*
X69202380Y-63202380D01*
X69154761Y-63154761D01*
X69107142Y-63202380D01*
X69202380Y-63202380D01*
X68202380Y-63869047D02*
X68202380Y-63964285D01*
X68250000Y-64059523D01*
X68297619Y-64107142D01*
X68392857Y-64154761D01*
X68583333Y-64202380D01*
X68821428Y-64202380D01*
X69011904Y-64154761D01*
X69107142Y-64107142D01*
X69154761Y-64059523D01*
X69202380Y-63964285D01*
X69202380Y-63869047D01*
X69154761Y-63773809D01*
X69107142Y-63726190D01*
X69011904Y-63678571D01*
X68821428Y-63630952D01*
X68583333Y-63630952D01*
X68392857Y-63678571D01*
X68297619Y-63726190D01*
X68250000Y-63773809D01*
X68202380Y-63869047D01*
X69107142Y-64630952D02*
X69154761Y-64678571D01*
X69202380Y-64630952D01*
X69154761Y-64583333D01*
X69107142Y-64630952D01*
X69202380Y-64630952D01*
X69202380Y-65630952D02*
X69202380Y-65059523D01*
X69202380Y-65345238D02*
X68202380Y-65345238D01*
X68345238Y-65249999D01*
X68440476Y-65154761D01*
X68488095Y-65059523D01*
M02*
