%TF.GenerationSoftware,KiCad,Pcbnew,5.1.9+dfsg1-1~bpo10+1*%
%TF.CreationDate,2022-02-02T01:18:43+08:00*%
%TF.ProjectId,MiniADSR 1.0.1 - Control,4d696e69-4144-4535-9220-312e302e3120,rev?*%
%TF.SameCoordinates,Original*%
%TF.FileFunction,Other,Fab,Top*%
%FSLAX46Y46*%
G04 Gerber Fmt 4.6, Leading zero omitted, Abs format (unit mm)*
G04 Created by KiCad (PCBNEW 5.1.9+dfsg1-1~bpo10+1) date 2022-02-02 01:18:43*
%MOMM*%
%LPD*%
G01*
G04 APERTURE LIST*
%ADD10C,0.150000*%
%ADD11C,0.100000*%
G04 APERTURE END LIST*
D10*
X109211724Y-122500000D02*
G75*
G03*
X109211724Y-122500000I-1711724J0D01*
G01*
D11*
%TO.C,POT_RELEASE1*%
X106250000Y-116500000D02*
X106250000Y-105150000D01*
X106250000Y-105150000D02*
X96750000Y-105150000D01*
X106250000Y-116500000D02*
X96750000Y-116500000D01*
X96750000Y-116500000D02*
X96750000Y-105150000D01*
X105000000Y-110000000D02*
G75*
G03*
X105000000Y-110000000I-3500000J0D01*
G01*
%TO.C,J1*%
X106000000Y-127500000D02*
X106000000Y-129530000D01*
X107800000Y-133980000D02*
G75*
G03*
X107800000Y-133980000I-1800000J0D01*
G01*
X110500000Y-129530000D02*
X101500000Y-129530000D01*
X110500000Y-139980000D02*
X101500000Y-139980000D01*
X110500000Y-139980000D02*
X110500000Y-129580000D01*
X101500000Y-139980000D02*
X101500000Y-129580000D01*
%TO.C,R12*%
X98500000Y-141660000D02*
X96000000Y-141660000D01*
X96000000Y-141660000D02*
X96000000Y-147960000D01*
X96000000Y-147960000D02*
X98500000Y-147960000D01*
X98500000Y-147960000D02*
X98500000Y-141660000D01*
X97250000Y-141000000D02*
X97250000Y-141660000D01*
X97250000Y-148620000D02*
X97250000Y-147960000D01*
%TO.C,R11*%
X109750000Y-113620000D02*
X109750000Y-112960000D01*
X109750000Y-106000000D02*
X109750000Y-106660000D01*
X111000000Y-112960000D02*
X111000000Y-106660000D01*
X108500000Y-112960000D02*
X111000000Y-112960000D01*
X108500000Y-106660000D02*
X108500000Y-112960000D01*
X111000000Y-106660000D02*
X108500000Y-106660000D01*
%TO.C,POT_ATTACK1*%
X105000000Y-59000000D02*
G75*
G03*
X105000000Y-59000000I-3500000J0D01*
G01*
X96750000Y-65500000D02*
X96750000Y-54150000D01*
X106250000Y-65500000D02*
X96750000Y-65500000D01*
X106250000Y-54150000D02*
X96750000Y-54150000D01*
X106250000Y-65500000D02*
X106250000Y-54150000D01*
%TO.C,POT_DECAY1*%
X105000000Y-76000000D02*
G75*
G03*
X105000000Y-76000000I-3500000J0D01*
G01*
X96750000Y-82500000D02*
X96750000Y-71150000D01*
X106250000Y-82500000D02*
X96750000Y-82500000D01*
X106250000Y-71150000D02*
X96750000Y-71150000D01*
X106250000Y-82500000D02*
X106250000Y-71150000D01*
%TO.C,POT_SUSTAIN1*%
X106250000Y-99500000D02*
X106250000Y-88150000D01*
X106250000Y-88150000D02*
X96750000Y-88150000D01*
X106250000Y-99500000D02*
X96750000Y-99500000D01*
X96750000Y-99500000D02*
X96750000Y-88150000D01*
X105000000Y-93000000D02*
G75*
G03*
X105000000Y-93000000I-3500000J0D01*
G01*
%TO.C,D6*%
X102666190Y-121020000D02*
X100333810Y-121020000D01*
X103000000Y-122520000D02*
G75*
G03*
X103000000Y-122520000I-1500000J0D01*
G01*
X100334524Y-121019445D02*
G75*
G03*
X102666190Y-121020000I1165476J-1500555D01*
G01*
%TO.C,D7*%
X99500000Y-152270000D02*
G75*
G03*
X99500000Y-152270000I-1500000J0D01*
G01*
X99166190Y-150770000D02*
X96833810Y-150770000D01*
X96834524Y-150769445D02*
G75*
G03*
X99166190Y-150770000I1165476J-1500555D01*
G01*
%TO.C,J2*%
X106000000Y-142000000D02*
X106000000Y-144030000D01*
X107800000Y-148480000D02*
G75*
G03*
X107800000Y-148480000I-1800000J0D01*
G01*
X110500000Y-144030000D02*
X101500000Y-144030000D01*
X110500000Y-154480000D02*
X101500000Y-154480000D01*
X110500000Y-154480000D02*
X110500000Y-144080000D01*
X101500000Y-154480000D02*
X101500000Y-144080000D01*
%TD*%
%TO.C,POT_RELEASE1*%
D10*
X101314285Y-117752380D02*
X100742857Y-117752380D01*
X101028571Y-117752380D02*
X101028571Y-116752380D01*
X100933333Y-116895238D01*
X100838095Y-116990476D01*
X100742857Y-117038095D01*
X101742857Y-117752380D02*
X101742857Y-116752380D01*
X102076190Y-117466666D01*
X102409523Y-116752380D01*
X102409523Y-117752380D01*
X96809523Y-115702380D02*
X96809523Y-114702380D01*
X97190476Y-114702380D01*
X97285714Y-114750000D01*
X97333333Y-114797619D01*
X97380952Y-114892857D01*
X97380952Y-115035714D01*
X97333333Y-115130952D01*
X97285714Y-115178571D01*
X97190476Y-115226190D01*
X96809523Y-115226190D01*
X98000000Y-114702380D02*
X98190476Y-114702380D01*
X98285714Y-114750000D01*
X98380952Y-114845238D01*
X98428571Y-115035714D01*
X98428571Y-115369047D01*
X98380952Y-115559523D01*
X98285714Y-115654761D01*
X98190476Y-115702380D01*
X98000000Y-115702380D01*
X97904761Y-115654761D01*
X97809523Y-115559523D01*
X97761904Y-115369047D01*
X97761904Y-115035714D01*
X97809523Y-114845238D01*
X97904761Y-114750000D01*
X98000000Y-114702380D01*
X98714285Y-114702380D02*
X99285714Y-114702380D01*
X99000000Y-115702380D02*
X99000000Y-114702380D01*
X99380952Y-115797619D02*
X100142857Y-115797619D01*
X100952380Y-115702380D02*
X100619047Y-115226190D01*
X100380952Y-115702380D02*
X100380952Y-114702380D01*
X100761904Y-114702380D01*
X100857142Y-114750000D01*
X100904761Y-114797619D01*
X100952380Y-114892857D01*
X100952380Y-115035714D01*
X100904761Y-115130952D01*
X100857142Y-115178571D01*
X100761904Y-115226190D01*
X100380952Y-115226190D01*
X101380952Y-115178571D02*
X101714285Y-115178571D01*
X101857142Y-115702380D02*
X101380952Y-115702380D01*
X101380952Y-114702380D01*
X101857142Y-114702380D01*
X102761904Y-115702380D02*
X102285714Y-115702380D01*
X102285714Y-114702380D01*
X103095238Y-115178571D02*
X103428571Y-115178571D01*
X103571428Y-115702380D02*
X103095238Y-115702380D01*
X103095238Y-114702380D01*
X103571428Y-114702380D01*
X103952380Y-115416666D02*
X104428571Y-115416666D01*
X103857142Y-115702380D02*
X104190476Y-114702380D01*
X104523809Y-115702380D01*
X104809523Y-115654761D02*
X104952380Y-115702380D01*
X105190476Y-115702380D01*
X105285714Y-115654761D01*
X105333333Y-115607142D01*
X105380952Y-115511904D01*
X105380952Y-115416666D01*
X105333333Y-115321428D01*
X105285714Y-115273809D01*
X105190476Y-115226190D01*
X105000000Y-115178571D01*
X104904761Y-115130952D01*
X104857142Y-115083333D01*
X104809523Y-114988095D01*
X104809523Y-114892857D01*
X104857142Y-114797619D01*
X104904761Y-114750000D01*
X105000000Y-114702380D01*
X105238095Y-114702380D01*
X105380952Y-114750000D01*
X105809523Y-115178571D02*
X106142857Y-115178571D01*
X106285714Y-115702380D02*
X105809523Y-115702380D01*
X105809523Y-114702380D01*
X106285714Y-114702380D01*
X107238095Y-115702380D02*
X106666666Y-115702380D01*
X106952380Y-115702380D02*
X106952380Y-114702380D01*
X106857142Y-114845238D01*
X106761904Y-114940476D01*
X106666666Y-114988095D01*
%TO.C,REF\u002A\u002A*%
X110952380Y-131619047D02*
X109952380Y-131619047D01*
X110666666Y-131285714D01*
X109952380Y-130952380D01*
X110952380Y-130952380D01*
X110952380Y-130333333D02*
X110904761Y-130428571D01*
X110857142Y-130476190D01*
X110761904Y-130523809D01*
X110476190Y-130523809D01*
X110380952Y-130476190D01*
X110333333Y-130428571D01*
X110285714Y-130333333D01*
X110285714Y-130190476D01*
X110333333Y-130095238D01*
X110380952Y-130047619D01*
X110476190Y-130000000D01*
X110761904Y-130000000D01*
X110857142Y-130047619D01*
X110904761Y-130095238D01*
X110952380Y-130190476D01*
X110952380Y-130333333D01*
X110285714Y-129142857D02*
X110952380Y-129142857D01*
X110285714Y-129571428D02*
X110809523Y-129571428D01*
X110904761Y-129523809D01*
X110952380Y-129428571D01*
X110952380Y-129285714D01*
X110904761Y-129190476D01*
X110857142Y-129142857D01*
X110285714Y-128666666D02*
X110952380Y-128666666D01*
X110380952Y-128666666D02*
X110333333Y-128619047D01*
X110285714Y-128523809D01*
X110285714Y-128380952D01*
X110333333Y-128285714D01*
X110428571Y-128238095D01*
X110952380Y-128238095D01*
X110285714Y-127904761D02*
X110285714Y-127523809D01*
X109952380Y-127761904D02*
X110809523Y-127761904D01*
X110904761Y-127714285D01*
X110952380Y-127619047D01*
X110952380Y-127523809D01*
X110952380Y-127190476D02*
X110285714Y-127190476D01*
X109952380Y-127190476D02*
X110000000Y-127238095D01*
X110047619Y-127190476D01*
X110000000Y-127142857D01*
X109952380Y-127190476D01*
X110047619Y-127190476D01*
X110285714Y-126714285D02*
X110952380Y-126714285D01*
X110380952Y-126714285D02*
X110333333Y-126666666D01*
X110285714Y-126571428D01*
X110285714Y-126428571D01*
X110333333Y-126333333D01*
X110428571Y-126285714D01*
X110952380Y-126285714D01*
X110285714Y-125380952D02*
X111095238Y-125380952D01*
X111190476Y-125428571D01*
X111238095Y-125476190D01*
X111285714Y-125571428D01*
X111285714Y-125714285D01*
X111238095Y-125809523D01*
X110904761Y-125380952D02*
X110952380Y-125476190D01*
X110952380Y-125666666D01*
X110904761Y-125761904D01*
X110857142Y-125809523D01*
X110761904Y-125857142D01*
X110476190Y-125857142D01*
X110380952Y-125809523D01*
X110333333Y-125761904D01*
X110285714Y-125666666D01*
X110285714Y-125476190D01*
X110333333Y-125380952D01*
X110952380Y-124904761D02*
X109952380Y-124904761D01*
X110428571Y-124904761D02*
X110428571Y-124333333D01*
X110952380Y-124333333D02*
X109952380Y-124333333D01*
X110952380Y-123714285D02*
X110904761Y-123809523D01*
X110857142Y-123857142D01*
X110761904Y-123904761D01*
X110476190Y-123904761D01*
X110380952Y-123857142D01*
X110333333Y-123809523D01*
X110285714Y-123714285D01*
X110285714Y-123571428D01*
X110333333Y-123476190D01*
X110380952Y-123428571D01*
X110476190Y-123380952D01*
X110761904Y-123380952D01*
X110857142Y-123428571D01*
X110904761Y-123476190D01*
X110952380Y-123571428D01*
X110952380Y-123714285D01*
X110952380Y-122809523D02*
X110904761Y-122904761D01*
X110809523Y-122952380D01*
X109952380Y-122952380D01*
X110904761Y-122047619D02*
X110952380Y-122142857D01*
X110952380Y-122333333D01*
X110904761Y-122428571D01*
X110809523Y-122476190D01*
X110428571Y-122476190D01*
X110333333Y-122428571D01*
X110285714Y-122333333D01*
X110285714Y-122142857D01*
X110333333Y-122047619D01*
X110428571Y-122000000D01*
X110523809Y-122000000D01*
X110619047Y-122476190D01*
X111047619Y-121809523D02*
X111047619Y-121047619D01*
X109952380Y-120904761D02*
X109952380Y-120285714D01*
X110333333Y-120619047D01*
X110333333Y-120476190D01*
X110380952Y-120380952D01*
X110428571Y-120333333D01*
X110523809Y-120285714D01*
X110761904Y-120285714D01*
X110857142Y-120333333D01*
X110904761Y-120380952D01*
X110952380Y-120476190D01*
X110952380Y-120761904D01*
X110904761Y-120857142D01*
X110857142Y-120904761D01*
X110857142Y-119857142D02*
X110904761Y-119809523D01*
X110952380Y-119857142D01*
X110904761Y-119904761D01*
X110857142Y-119857142D01*
X110952380Y-119857142D01*
X110047619Y-119428571D02*
X110000000Y-119380952D01*
X109952380Y-119285714D01*
X109952380Y-119047619D01*
X110000000Y-118952380D01*
X110047619Y-118904761D01*
X110142857Y-118857142D01*
X110238095Y-118857142D01*
X110380952Y-118904761D01*
X110952380Y-119476190D01*
X110952380Y-118857142D01*
X110952380Y-118428571D02*
X110285714Y-118428571D01*
X110380952Y-118428571D02*
X110333333Y-118380952D01*
X110285714Y-118285714D01*
X110285714Y-118142857D01*
X110333333Y-118047619D01*
X110428571Y-118000000D01*
X110952380Y-118000000D01*
X110428571Y-118000000D02*
X110333333Y-117952380D01*
X110285714Y-117857142D01*
X110285714Y-117714285D01*
X110333333Y-117619047D01*
X110428571Y-117571428D01*
X110952380Y-117571428D01*
X110952380Y-117095238D02*
X110285714Y-117095238D01*
X110380952Y-117095238D02*
X110333333Y-117047619D01*
X110285714Y-116952380D01*
X110285714Y-116809523D01*
X110333333Y-116714285D01*
X110428571Y-116666666D01*
X110952380Y-116666666D01*
X110428571Y-116666666D02*
X110333333Y-116619047D01*
X110285714Y-116523809D01*
X110285714Y-116380952D01*
X110333333Y-116285714D01*
X110428571Y-116238095D01*
X110952380Y-116238095D01*
X111047619Y-116000000D02*
X111047619Y-115238095D01*
X110952380Y-115000000D02*
X109952380Y-115000000D01*
X110666666Y-114666666D01*
X109952380Y-114333333D01*
X110952380Y-114333333D01*
X109952380Y-113952380D02*
X109952380Y-113333333D01*
X110333333Y-113666666D01*
X110333333Y-113523809D01*
X110380952Y-113428571D01*
X110428571Y-113380952D01*
X110523809Y-113333333D01*
X110761904Y-113333333D01*
X110857142Y-113380952D01*
X110904761Y-113428571D01*
X110952380Y-113523809D01*
X110952380Y-113809523D01*
X110904761Y-113904761D01*
X110857142Y-113952380D01*
%TO.C,J1*%
X105666666Y-134952380D02*
X105666666Y-135666666D01*
X105619047Y-135809523D01*
X105523809Y-135904761D01*
X105380952Y-135952380D01*
X105285714Y-135952380D01*
X106666666Y-135952380D02*
X106095238Y-135952380D01*
X106380952Y-135952380D02*
X106380952Y-134952380D01*
X106285714Y-135095238D01*
X106190476Y-135190476D01*
X106095238Y-135238095D01*
%TO.C,R12*%
X97652380Y-145542857D02*
X97176190Y-145876190D01*
X97652380Y-146114285D02*
X96652380Y-146114285D01*
X96652380Y-145733333D01*
X96700000Y-145638095D01*
X96747619Y-145590476D01*
X96842857Y-145542857D01*
X96985714Y-145542857D01*
X97080952Y-145590476D01*
X97128571Y-145638095D01*
X97176190Y-145733333D01*
X97176190Y-146114285D01*
X97652380Y-144590476D02*
X97652380Y-145161904D01*
X97652380Y-144876190D02*
X96652380Y-144876190D01*
X96795238Y-144971428D01*
X96890476Y-145066666D01*
X96938095Y-145161904D01*
X96747619Y-144209523D02*
X96700000Y-144161904D01*
X96652380Y-144066666D01*
X96652380Y-143828571D01*
X96700000Y-143733333D01*
X96747619Y-143685714D01*
X96842857Y-143638095D01*
X96938095Y-143638095D01*
X97080952Y-143685714D01*
X97652380Y-144257142D01*
X97652380Y-143638095D01*
%TO.C,R11*%
X109057142Y-104652380D02*
X108723809Y-104176190D01*
X108485714Y-104652380D02*
X108485714Y-103652380D01*
X108866666Y-103652380D01*
X108961904Y-103700000D01*
X109009523Y-103747619D01*
X109057142Y-103842857D01*
X109057142Y-103985714D01*
X109009523Y-104080952D01*
X108961904Y-104128571D01*
X108866666Y-104176190D01*
X108485714Y-104176190D01*
X110009523Y-104652380D02*
X109438095Y-104652380D01*
X109723809Y-104652380D02*
X109723809Y-103652380D01*
X109628571Y-103795238D01*
X109533333Y-103890476D01*
X109438095Y-103938095D01*
X110961904Y-104652380D02*
X110390476Y-104652380D01*
X110676190Y-104652380D02*
X110676190Y-103652380D01*
X110580952Y-103795238D01*
X110485714Y-103890476D01*
X110390476Y-103938095D01*
%TO.C,POT_ATTACK1*%
X101214285Y-66752380D02*
X100642857Y-66752380D01*
X100928571Y-66752380D02*
X100928571Y-65752380D01*
X100833333Y-65895238D01*
X100738095Y-65990476D01*
X100642857Y-66038095D01*
X101642857Y-66752380D02*
X101642857Y-65752380D01*
X101976190Y-66466666D01*
X102309523Y-65752380D01*
X102309523Y-66752380D01*
X101992380Y-63522857D02*
X100992380Y-63522857D01*
X100992380Y-63141904D01*
X101040000Y-63046666D01*
X101087619Y-62999047D01*
X101182857Y-62951428D01*
X101325714Y-62951428D01*
X101420952Y-62999047D01*
X101468571Y-63046666D01*
X101516190Y-63141904D01*
X101516190Y-63522857D01*
X100992380Y-62332380D02*
X100992380Y-62141904D01*
X101040000Y-62046666D01*
X101135238Y-61951428D01*
X101325714Y-61903809D01*
X101659047Y-61903809D01*
X101849523Y-61951428D01*
X101944761Y-62046666D01*
X101992380Y-62141904D01*
X101992380Y-62332380D01*
X101944761Y-62427619D01*
X101849523Y-62522857D01*
X101659047Y-62570476D01*
X101325714Y-62570476D01*
X101135238Y-62522857D01*
X101040000Y-62427619D01*
X100992380Y-62332380D01*
X100992380Y-61618095D02*
X100992380Y-61046666D01*
X101992380Y-61332380D02*
X100992380Y-61332380D01*
X102087619Y-60951428D02*
X102087619Y-60189523D01*
X101706666Y-59999047D02*
X101706666Y-59522857D01*
X101992380Y-60094285D02*
X100992380Y-59760952D01*
X101992380Y-59427619D01*
X100992380Y-59237142D02*
X100992380Y-58665714D01*
X101992380Y-58951428D02*
X100992380Y-58951428D01*
X100992380Y-58475238D02*
X100992380Y-57903809D01*
X101992380Y-58189523D02*
X100992380Y-58189523D01*
X101706666Y-57618095D02*
X101706666Y-57141904D01*
X101992380Y-57713333D02*
X100992380Y-57380000D01*
X101992380Y-57046666D01*
X101897142Y-56141904D02*
X101944761Y-56189523D01*
X101992380Y-56332380D01*
X101992380Y-56427619D01*
X101944761Y-56570476D01*
X101849523Y-56665714D01*
X101754285Y-56713333D01*
X101563809Y-56760952D01*
X101420952Y-56760952D01*
X101230476Y-56713333D01*
X101135238Y-56665714D01*
X101040000Y-56570476D01*
X100992380Y-56427619D01*
X100992380Y-56332380D01*
X101040000Y-56189523D01*
X101087619Y-56141904D01*
X101992380Y-55713333D02*
X100992380Y-55713333D01*
X101992380Y-55141904D02*
X101420952Y-55570476D01*
X100992380Y-55141904D02*
X101563809Y-55713333D01*
X101992380Y-54189523D02*
X101992380Y-54760952D01*
X101992380Y-54475238D02*
X100992380Y-54475238D01*
X101135238Y-54570476D01*
X101230476Y-54665714D01*
X101278095Y-54760952D01*
%TO.C,POT_DECAY1*%
X101214285Y-83752380D02*
X100642857Y-83752380D01*
X100928571Y-83752380D02*
X100928571Y-82752380D01*
X100833333Y-82895238D01*
X100738095Y-82990476D01*
X100642857Y-83038095D01*
X101642857Y-83752380D02*
X101642857Y-82752380D01*
X101976190Y-83466666D01*
X102309523Y-82752380D01*
X102309523Y-83752380D01*
X101992380Y-80213333D02*
X100992380Y-80213333D01*
X100992380Y-79832380D01*
X101040000Y-79737142D01*
X101087619Y-79689523D01*
X101182857Y-79641904D01*
X101325714Y-79641904D01*
X101420952Y-79689523D01*
X101468571Y-79737142D01*
X101516190Y-79832380D01*
X101516190Y-80213333D01*
X100992380Y-79022857D02*
X100992380Y-78832380D01*
X101040000Y-78737142D01*
X101135238Y-78641904D01*
X101325714Y-78594285D01*
X101659047Y-78594285D01*
X101849523Y-78641904D01*
X101944761Y-78737142D01*
X101992380Y-78832380D01*
X101992380Y-79022857D01*
X101944761Y-79118095D01*
X101849523Y-79213333D01*
X101659047Y-79260952D01*
X101325714Y-79260952D01*
X101135238Y-79213333D01*
X101040000Y-79118095D01*
X100992380Y-79022857D01*
X100992380Y-78308571D02*
X100992380Y-77737142D01*
X101992380Y-78022857D02*
X100992380Y-78022857D01*
X102087619Y-77641904D02*
X102087619Y-76880000D01*
X101992380Y-76641904D02*
X100992380Y-76641904D01*
X100992380Y-76403809D01*
X101040000Y-76260952D01*
X101135238Y-76165714D01*
X101230476Y-76118095D01*
X101420952Y-76070476D01*
X101563809Y-76070476D01*
X101754285Y-76118095D01*
X101849523Y-76165714D01*
X101944761Y-76260952D01*
X101992380Y-76403809D01*
X101992380Y-76641904D01*
X101468571Y-75641904D02*
X101468571Y-75308571D01*
X101992380Y-75165714D02*
X101992380Y-75641904D01*
X100992380Y-75641904D01*
X100992380Y-75165714D01*
X101897142Y-74165714D02*
X101944761Y-74213333D01*
X101992380Y-74356190D01*
X101992380Y-74451428D01*
X101944761Y-74594285D01*
X101849523Y-74689523D01*
X101754285Y-74737142D01*
X101563809Y-74784761D01*
X101420952Y-74784761D01*
X101230476Y-74737142D01*
X101135238Y-74689523D01*
X101040000Y-74594285D01*
X100992380Y-74451428D01*
X100992380Y-74356190D01*
X101040000Y-74213333D01*
X101087619Y-74165714D01*
X101706666Y-73784761D02*
X101706666Y-73308571D01*
X101992380Y-73880000D02*
X100992380Y-73546666D01*
X101992380Y-73213333D01*
X101516190Y-72689523D02*
X101992380Y-72689523D01*
X100992380Y-73022857D02*
X101516190Y-72689523D01*
X100992380Y-72356190D01*
X101992380Y-71499047D02*
X101992380Y-72070476D01*
X101992380Y-71784761D02*
X100992380Y-71784761D01*
X101135238Y-71880000D01*
X101230476Y-71975238D01*
X101278095Y-72070476D01*
%TO.C,POT_SUSTAIN1*%
X100809523Y-100952380D02*
X100238095Y-100952380D01*
X100523809Y-100952380D02*
X100523809Y-99952380D01*
X100428571Y-100095238D01*
X100333333Y-100190476D01*
X100238095Y-100238095D01*
X101428571Y-99952380D02*
X101523809Y-99952380D01*
X101619047Y-100000000D01*
X101666666Y-100047619D01*
X101714285Y-100142857D01*
X101761904Y-100333333D01*
X101761904Y-100571428D01*
X101714285Y-100761904D01*
X101666666Y-100857142D01*
X101619047Y-100904761D01*
X101523809Y-100952380D01*
X101428571Y-100952380D01*
X101333333Y-100904761D01*
X101285714Y-100857142D01*
X101238095Y-100761904D01*
X101190476Y-100571428D01*
X101190476Y-100333333D01*
X101238095Y-100142857D01*
X101285714Y-100047619D01*
X101333333Y-100000000D01*
X101428571Y-99952380D01*
X102190476Y-100952380D02*
X102190476Y-99952380D01*
X102761904Y-100952380D02*
X102333333Y-100380952D01*
X102761904Y-99952380D02*
X102190476Y-100523809D01*
X101992380Y-97951428D02*
X100992380Y-97951428D01*
X100992380Y-97570476D01*
X101040000Y-97475238D01*
X101087619Y-97427619D01*
X101182857Y-97380000D01*
X101325714Y-97380000D01*
X101420952Y-97427619D01*
X101468571Y-97475238D01*
X101516190Y-97570476D01*
X101516190Y-97951428D01*
X100992380Y-96760952D02*
X100992380Y-96570476D01*
X101040000Y-96475238D01*
X101135238Y-96380000D01*
X101325714Y-96332380D01*
X101659047Y-96332380D01*
X101849523Y-96380000D01*
X101944761Y-96475238D01*
X101992380Y-96570476D01*
X101992380Y-96760952D01*
X101944761Y-96856190D01*
X101849523Y-96951428D01*
X101659047Y-96999047D01*
X101325714Y-96999047D01*
X101135238Y-96951428D01*
X101040000Y-96856190D01*
X100992380Y-96760952D01*
X100992380Y-96046666D02*
X100992380Y-95475238D01*
X101992380Y-95760952D02*
X100992380Y-95760952D01*
X102087619Y-95380000D02*
X102087619Y-94618095D01*
X101944761Y-94427619D02*
X101992380Y-94284761D01*
X101992380Y-94046666D01*
X101944761Y-93951428D01*
X101897142Y-93903809D01*
X101801904Y-93856190D01*
X101706666Y-93856190D01*
X101611428Y-93903809D01*
X101563809Y-93951428D01*
X101516190Y-94046666D01*
X101468571Y-94237142D01*
X101420952Y-94332380D01*
X101373333Y-94380000D01*
X101278095Y-94427619D01*
X101182857Y-94427619D01*
X101087619Y-94380000D01*
X101040000Y-94332380D01*
X100992380Y-94237142D01*
X100992380Y-93999047D01*
X101040000Y-93856190D01*
X100992380Y-93427619D02*
X101801904Y-93427619D01*
X101897142Y-93380000D01*
X101944761Y-93332380D01*
X101992380Y-93237142D01*
X101992380Y-93046666D01*
X101944761Y-92951428D01*
X101897142Y-92903809D01*
X101801904Y-92856190D01*
X100992380Y-92856190D01*
X101944761Y-92427619D02*
X101992380Y-92284761D01*
X101992380Y-92046666D01*
X101944761Y-91951428D01*
X101897142Y-91903809D01*
X101801904Y-91856190D01*
X101706666Y-91856190D01*
X101611428Y-91903809D01*
X101563809Y-91951428D01*
X101516190Y-92046666D01*
X101468571Y-92237142D01*
X101420952Y-92332380D01*
X101373333Y-92380000D01*
X101278095Y-92427619D01*
X101182857Y-92427619D01*
X101087619Y-92380000D01*
X101040000Y-92332380D01*
X100992380Y-92237142D01*
X100992380Y-91999047D01*
X101040000Y-91856190D01*
X100992380Y-91570476D02*
X100992380Y-90999047D01*
X101992380Y-91284761D02*
X100992380Y-91284761D01*
X101706666Y-90713333D02*
X101706666Y-90237142D01*
X101992380Y-90808571D02*
X100992380Y-90475238D01*
X101992380Y-90141904D01*
X101992380Y-89808571D02*
X100992380Y-89808571D01*
X101992380Y-89332380D02*
X100992380Y-89332380D01*
X101992380Y-88760952D01*
X100992380Y-88760952D01*
X101992380Y-87760952D02*
X101992380Y-88332380D01*
X101992380Y-88046666D02*
X100992380Y-88046666D01*
X101135238Y-88141904D01*
X101230476Y-88237142D01*
X101278095Y-88332380D01*
%TO.C,D6*%
X98428571Y-120552380D02*
X98428571Y-119552380D01*
X98809523Y-119552380D01*
X98904761Y-119600000D01*
X98952380Y-119647619D01*
X99000000Y-119742857D01*
X99000000Y-119885714D01*
X98952380Y-119980952D01*
X98904761Y-120028571D01*
X98809523Y-120076190D01*
X98428571Y-120076190D01*
X99333333Y-119552380D02*
X99571428Y-120552380D01*
X99761904Y-119838095D01*
X99952380Y-120552380D01*
X100190476Y-119552380D01*
X101142857Y-120552380D02*
X100809523Y-120076190D01*
X100571428Y-120552380D02*
X100571428Y-119552380D01*
X100952380Y-119552380D01*
X101047619Y-119600000D01*
X101095238Y-119647619D01*
X101142857Y-119742857D01*
X101142857Y-119885714D01*
X101095238Y-119980952D01*
X101047619Y-120028571D01*
X100952380Y-120076190D01*
X100571428Y-120076190D01*
X101333333Y-120647619D02*
X102095238Y-120647619D01*
X102809523Y-120552380D02*
X102333333Y-120552380D01*
X102333333Y-119552380D01*
X103142857Y-120028571D02*
X103476190Y-120028571D01*
X103619047Y-120552380D02*
X103142857Y-120552380D01*
X103142857Y-119552380D01*
X103619047Y-119552380D01*
X104047619Y-120552380D02*
X104047619Y-119552380D01*
X104285714Y-119552380D01*
X104428571Y-119600000D01*
X104523809Y-119695238D01*
X104571428Y-119790476D01*
X104619047Y-119980952D01*
X104619047Y-120123809D01*
X104571428Y-120314285D01*
X104523809Y-120409523D01*
X104428571Y-120504761D01*
X104285714Y-120552380D01*
X104047619Y-120552380D01*
%TO.C,D7*%
X93857142Y-154952380D02*
X94047619Y-154952380D01*
X94142857Y-155000000D01*
X94238095Y-155095238D01*
X94285714Y-155285714D01*
X94285714Y-155619047D01*
X94238095Y-155809523D01*
X94142857Y-155904761D01*
X94047619Y-155952380D01*
X93857142Y-155952380D01*
X93761904Y-155904761D01*
X93666666Y-155809523D01*
X93619047Y-155619047D01*
X93619047Y-155285714D01*
X93666666Y-155095238D01*
X93761904Y-155000000D01*
X93857142Y-154952380D01*
X94714285Y-154952380D02*
X94714285Y-155761904D01*
X94761904Y-155857142D01*
X94809523Y-155904761D01*
X94904761Y-155952380D01*
X95095238Y-155952380D01*
X95190476Y-155904761D01*
X95238095Y-155857142D01*
X95285714Y-155761904D01*
X95285714Y-154952380D01*
X95619047Y-154952380D02*
X96190476Y-154952380D01*
X95904761Y-155952380D02*
X95904761Y-154952380D01*
X96523809Y-155952380D02*
X96523809Y-154952380D01*
X96904761Y-154952380D01*
X97000000Y-155000000D01*
X97047619Y-155047619D01*
X97095238Y-155142857D01*
X97095238Y-155285714D01*
X97047619Y-155380952D01*
X97000000Y-155428571D01*
X96904761Y-155476190D01*
X96523809Y-155476190D01*
X97523809Y-154952380D02*
X97523809Y-155761904D01*
X97571428Y-155857142D01*
X97619047Y-155904761D01*
X97714285Y-155952380D01*
X97904761Y-155952380D01*
X98000000Y-155904761D01*
X98047619Y-155857142D01*
X98095238Y-155761904D01*
X98095238Y-154952380D01*
X98428571Y-154952380D02*
X99000000Y-154952380D01*
X98714285Y-155952380D02*
X98714285Y-154952380D01*
X99095238Y-156047619D02*
X99857142Y-156047619D01*
X100571428Y-155952380D02*
X100095238Y-155952380D01*
X100095238Y-154952380D01*
X100904761Y-155428571D02*
X101238095Y-155428571D01*
X101380952Y-155952380D02*
X100904761Y-155952380D01*
X100904761Y-154952380D01*
X101380952Y-154952380D01*
X101809523Y-155952380D02*
X101809523Y-154952380D01*
X102047619Y-154952380D01*
X102190476Y-155000000D01*
X102285714Y-155095238D01*
X102333333Y-155190476D01*
X102380952Y-155380952D01*
X102380952Y-155523809D01*
X102333333Y-155714285D01*
X102285714Y-155809523D01*
X102190476Y-155904761D01*
X102047619Y-155952380D01*
X101809523Y-155952380D01*
%TO.C,J2*%
X105666666Y-149452380D02*
X105666666Y-150166666D01*
X105619047Y-150309523D01*
X105523809Y-150404761D01*
X105380952Y-150452380D01*
X105285714Y-150452380D01*
X106095238Y-149547619D02*
X106142857Y-149500000D01*
X106238095Y-149452380D01*
X106476190Y-149452380D01*
X106571428Y-149500000D01*
X106619047Y-149547619D01*
X106666666Y-149642857D01*
X106666666Y-149738095D01*
X106619047Y-149880952D01*
X106047619Y-150452380D01*
X106666666Y-150452380D01*
%TD*%
M02*
