%TF.GenerationSoftware,KiCad,Pcbnew,5.1.9+dfsg1-1~bpo10+1*%
%TF.CreationDate,2022-02-02T01:18:29+08:00*%
%TF.ProjectId,MiniADSR 1.0.1 - Main,4d696e69-4144-4535-9220-312e302e3120,rev?*%
%TF.SameCoordinates,Original*%
%TF.FileFunction,Other,Fab,Bot*%
%FSLAX46Y46*%
G04 Gerber Fmt 4.6, Leading zero omitted, Abs format (unit mm)*
G04 Created by KiCad (PCBNEW 5.1.9+dfsg1-1~bpo10+1) date 2022-02-02 01:18:29*
%MOMM*%
%LPD*%
G01*
G04 APERTURE LIST*
%ADD10C,0.100000*%
%ADD11C,0.150000*%
%ADD12C,0.120000*%
G04 APERTURE END LIST*
D10*
%TO.C,R7*%
X147940000Y-139750000D02*
X147940000Y-142250000D01*
X147940000Y-142250000D02*
X141640000Y-142250000D01*
X141640000Y-142250000D02*
X141640000Y-139750000D01*
X141640000Y-139750000D02*
X147940000Y-139750000D01*
X148600000Y-141000000D02*
X147940000Y-141000000D01*
X140980000Y-141000000D02*
X141640000Y-141000000D01*
%TO.C,C1*%
X148050000Y-109900000D02*
X150550000Y-109900000D01*
X150550000Y-109900000D02*
X150550000Y-117100000D01*
X150550000Y-117100000D02*
X148050000Y-117100000D01*
X148050000Y-117100000D02*
X148050000Y-109900000D01*
%TO.C,D1*%
X151500000Y-132810000D02*
X153500000Y-132810000D01*
X151500000Y-133010000D02*
X153500000Y-133010000D01*
X151500000Y-132910000D02*
X153500000Y-132910000D01*
X152500000Y-138120000D02*
X152500000Y-136310000D01*
X152500000Y-130500000D02*
X152500000Y-132310000D01*
X151500000Y-136310000D02*
X151500000Y-132310000D01*
X153500000Y-136310000D02*
X151500000Y-136310000D01*
X153500000Y-132310000D02*
X153500000Y-136310000D01*
X151500000Y-132310000D02*
X153500000Y-132310000D01*
%TO.C,R5*%
X153500000Y-105340000D02*
X151000000Y-105340000D01*
X151000000Y-105340000D02*
X151000000Y-99040000D01*
X151000000Y-99040000D02*
X153500000Y-99040000D01*
X153500000Y-99040000D02*
X153500000Y-105340000D01*
X152250000Y-106000000D02*
X152250000Y-105340000D01*
X152250000Y-98380000D02*
X152250000Y-99040000D01*
%TO.C,D2*%
X151250000Y-110485000D02*
X153250000Y-110485000D01*
X153250000Y-110485000D02*
X153250000Y-114485000D01*
X153250000Y-114485000D02*
X151250000Y-114485000D01*
X151250000Y-114485000D02*
X151250000Y-110485000D01*
X152250000Y-108675000D02*
X152250000Y-110485000D01*
X152250000Y-116295000D02*
X152250000Y-114485000D01*
X151250000Y-111085000D02*
X153250000Y-111085000D01*
X151250000Y-111185000D02*
X153250000Y-111185000D01*
X151250000Y-110985000D02*
X153250000Y-110985000D01*
%TO.C,U1*%
X146465000Y-97730000D02*
X141115000Y-97730000D01*
X141115000Y-97730000D02*
X141115000Y-107890000D01*
X141115000Y-107890000D02*
X147465000Y-107890000D01*
X147465000Y-107890000D02*
X147465000Y-98730000D01*
X147465000Y-98730000D02*
X146465000Y-97730000D01*
%TO.C,C2*%
X142762500Y-111366395D02*
X143262500Y-111366395D01*
X143012500Y-111116395D02*
X143012500Y-111616395D01*
X146600000Y-113250000D02*
G75*
G03*
X146600000Y-113250000I-2500000J0D01*
G01*
%TO.C,R3*%
X147940000Y-149050000D02*
X147940000Y-151550000D01*
X147940000Y-151550000D02*
X141640000Y-151550000D01*
X141640000Y-151550000D02*
X141640000Y-149050000D01*
X141640000Y-149050000D02*
X147940000Y-149050000D01*
X148600000Y-150300000D02*
X147940000Y-150300000D01*
X140980000Y-150300000D02*
X141640000Y-150300000D01*
%TO.C,R1*%
X147940000Y-152150000D02*
X147940000Y-154650000D01*
X147940000Y-154650000D02*
X141640000Y-154650000D01*
X141640000Y-154650000D02*
X141640000Y-152150000D01*
X141640000Y-152150000D02*
X147940000Y-152150000D01*
X148600000Y-153400000D02*
X147940000Y-153400000D01*
X140980000Y-153400000D02*
X141640000Y-153400000D01*
%TO.C,R9*%
X148620000Y-137900000D02*
X147960000Y-137900000D01*
X141000000Y-137900000D02*
X141660000Y-137900000D01*
X147960000Y-139150000D02*
X141660000Y-139150000D01*
X147960000Y-136650000D02*
X147960000Y-139150000D01*
X141660000Y-136650000D02*
X147960000Y-136650000D01*
X141660000Y-139150000D02*
X141660000Y-136650000D01*
%TO.C,R10*%
X137700000Y-107020000D02*
X137700000Y-106360000D01*
X137700000Y-99400000D02*
X137700000Y-100060000D01*
X136450000Y-106360000D02*
X136450000Y-100060000D01*
X138950000Y-106360000D02*
X136450000Y-106360000D01*
X138950000Y-100060000D02*
X138950000Y-106360000D01*
X136450000Y-100060000D02*
X138950000Y-100060000D01*
%TO.C,R8*%
X147940000Y-130250000D02*
X147940000Y-132750000D01*
X147940000Y-132750000D02*
X141640000Y-132750000D01*
X141640000Y-132750000D02*
X141640000Y-130250000D01*
X141640000Y-130250000D02*
X147940000Y-130250000D01*
X148600000Y-131500000D02*
X147940000Y-131500000D01*
X140980000Y-131500000D02*
X141640000Y-131500000D01*
%TO.C,R6*%
X148620000Y-134700000D02*
X147960000Y-134700000D01*
X141000000Y-134700000D02*
X141660000Y-134700000D01*
X147960000Y-135950000D02*
X141660000Y-135950000D01*
X147960000Y-133450000D02*
X147960000Y-135950000D01*
X141660000Y-133450000D02*
X147960000Y-133450000D01*
X141660000Y-135950000D02*
X141660000Y-133450000D01*
%TO.C,R4*%
X140980000Y-144100000D02*
X141640000Y-144100000D01*
X148600000Y-144100000D02*
X147940000Y-144100000D01*
X141640000Y-142850000D02*
X147940000Y-142850000D01*
X141640000Y-145350000D02*
X141640000Y-142850000D01*
X147940000Y-145350000D02*
X141640000Y-145350000D01*
X147940000Y-142850000D02*
X147940000Y-145350000D01*
%TO.C,R2*%
X140980000Y-147200000D02*
X141640000Y-147200000D01*
X148600000Y-147200000D02*
X147940000Y-147200000D01*
X141640000Y-145950000D02*
X147940000Y-145950000D01*
X141640000Y-148450000D02*
X141640000Y-145950000D01*
X147940000Y-148450000D02*
X141640000Y-148450000D01*
X147940000Y-145950000D02*
X147940000Y-148450000D01*
%TO.C,C3*%
X140800000Y-113150000D02*
G75*
G03*
X140800000Y-113150000I-2500000J0D01*
G01*
X139387500Y-115283605D02*
X139387500Y-114783605D01*
X139637500Y-115033605D02*
X139137500Y-115033605D01*
%TO.C,C4*%
X149566395Y-77137500D02*
X149566395Y-76637500D01*
X149316395Y-76887500D02*
X149816395Y-76887500D01*
X153950000Y-75800000D02*
G75*
G03*
X153950000Y-75800000I-2500000J0D01*
G01*
%TO.C,C5*%
X153850000Y-81600000D02*
G75*
G03*
X153850000Y-81600000I-2500000J0D01*
G01*
X153483605Y-80512500D02*
X152983605Y-80512500D01*
X153233605Y-80262500D02*
X153233605Y-80762500D01*
%TO.C,C6*%
X145850000Y-80900000D02*
X138650000Y-80900000D01*
X145850000Y-78400000D02*
X145850000Y-80900000D01*
X138650000Y-78400000D02*
X145850000Y-78400000D01*
X138650000Y-80900000D02*
X138650000Y-78400000D01*
%TO.C,C7*%
X138700000Y-94950000D02*
X138700000Y-92450000D01*
X138700000Y-92450000D02*
X145900000Y-92450000D01*
X145900000Y-92450000D02*
X145900000Y-94950000D01*
X145900000Y-94950000D02*
X138700000Y-94950000D01*
%TO.C,D3*%
X143800000Y-125940000D02*
X141800000Y-125940000D01*
X143800000Y-125740000D02*
X141800000Y-125740000D01*
X143800000Y-125840000D02*
X141800000Y-125840000D01*
X142800000Y-120630000D02*
X142800000Y-122440000D01*
X142800000Y-128250000D02*
X142800000Y-126440000D01*
X143800000Y-122440000D02*
X143800000Y-126440000D01*
X141800000Y-122440000D02*
X143800000Y-122440000D01*
X141800000Y-126440000D02*
X141800000Y-122440000D01*
X143800000Y-126440000D02*
X141800000Y-126440000D01*
%TO.C,D4*%
X144400000Y-122460000D02*
X146400000Y-122460000D01*
X146400000Y-122460000D02*
X146400000Y-126460000D01*
X146400000Y-126460000D02*
X144400000Y-126460000D01*
X144400000Y-126460000D02*
X144400000Y-122460000D01*
X145400000Y-120650000D02*
X145400000Y-122460000D01*
X145400000Y-128270000D02*
X145400000Y-126460000D01*
X144400000Y-123060000D02*
X146400000Y-123060000D01*
X144400000Y-123160000D02*
X146400000Y-123160000D01*
X144400000Y-122960000D02*
X146400000Y-122960000D01*
%TO.C,D5*%
X141200000Y-126440000D02*
X139200000Y-126440000D01*
X139200000Y-126440000D02*
X139200000Y-122440000D01*
X139200000Y-122440000D02*
X141200000Y-122440000D01*
X141200000Y-122440000D02*
X141200000Y-126440000D01*
X140200000Y-128250000D02*
X140200000Y-126440000D01*
X140200000Y-120630000D02*
X140200000Y-122440000D01*
X141200000Y-125840000D02*
X139200000Y-125840000D01*
X141200000Y-125740000D02*
X139200000Y-125740000D01*
X141200000Y-125940000D02*
X139200000Y-125940000D01*
%TO.C,J3*%
X153650000Y-71450000D02*
X147900000Y-71450000D01*
X147900000Y-71450000D02*
X147900000Y-54050000D01*
X147900000Y-54050000D02*
X153650000Y-54050000D01*
X153650000Y-54050000D02*
X153650000Y-71450000D01*
X153650000Y-69625000D02*
X152650000Y-69000000D01*
X152650000Y-69000000D02*
X153650000Y-68375000D01*
%TO.C,J5*%
X144880000Y-55000000D02*
X143880000Y-54000000D01*
X143880000Y-54000000D02*
X135980000Y-54000000D01*
X135980000Y-54000000D02*
X135980000Y-74360000D01*
X135980000Y-74360000D02*
X144880000Y-74360000D01*
X144880000Y-74360000D02*
X144880000Y-55000000D01*
X144880000Y-62130000D02*
X143680000Y-62130000D01*
X143680000Y-62130000D02*
X143680000Y-55190000D01*
X143680000Y-55190000D02*
X137180000Y-55190000D01*
X137180000Y-55190000D02*
X137180000Y-73170000D01*
X137180000Y-73170000D02*
X143680000Y-73170000D01*
X143680000Y-73170000D02*
X143680000Y-66230000D01*
X143680000Y-66230000D02*
X143680000Y-66230000D01*
X143680000Y-66230000D02*
X144880000Y-66230000D01*
%TO.C,U2*%
X144365000Y-82580000D02*
X143365000Y-81580000D01*
X144365000Y-91740000D02*
X144365000Y-82580000D01*
X138015000Y-91740000D02*
X144365000Y-91740000D01*
X138015000Y-81580000D02*
X138015000Y-91740000D01*
X143365000Y-81580000D02*
X138015000Y-81580000D01*
%TO.C,Q1*%
X154350000Y-142400000D02*
X154350000Y-145900000D01*
X154353625Y-145893625D02*
G75*
G02*
X150120000Y-144140000I-1753625J1753625D01*
G01*
X154353625Y-142386375D02*
G75*
G03*
X150120000Y-144140000I-1753625J-1753625D01*
G01*
%TO.C,Q2*%
X154350000Y-149600000D02*
X154350000Y-153100000D01*
X154353625Y-149586375D02*
G75*
G03*
X150120000Y-151340000I-1753625J-1753625D01*
G01*
X154353625Y-153093625D02*
G75*
G02*
X150120000Y-151340000I-1753625J1753625D01*
G01*
%TO.C,Q3*%
X149600000Y-91150000D02*
X149600000Y-87650000D01*
X149596375Y-87656375D02*
G75*
G02*
X153830000Y-89410000I1753625J-1753625D01*
G01*
X149596375Y-91163625D02*
G75*
G03*
X153830000Y-89410000I1753625J1753625D01*
G01*
%TD*%
%TO.C,R7*%
D11*
X144956666Y-141452380D02*
X145290000Y-140976190D01*
X145528095Y-141452380D02*
X145528095Y-140452380D01*
X145147142Y-140452380D01*
X145051904Y-140500000D01*
X145004285Y-140547619D01*
X144956666Y-140642857D01*
X144956666Y-140785714D01*
X145004285Y-140880952D01*
X145051904Y-140928571D01*
X145147142Y-140976190D01*
X145528095Y-140976190D01*
X144623333Y-140452380D02*
X143956666Y-140452380D01*
X144385238Y-141452380D01*
%TO.C,C1*%
X149657142Y-113333333D02*
X149704761Y-113285714D01*
X149752380Y-113142857D01*
X149752380Y-113047619D01*
X149704761Y-112904761D01*
X149609523Y-112809523D01*
X149514285Y-112761904D01*
X149323809Y-112714285D01*
X149180952Y-112714285D01*
X148990476Y-112761904D01*
X148895238Y-112809523D01*
X148800000Y-112904761D01*
X148752380Y-113047619D01*
X148752380Y-113142857D01*
X148800000Y-113285714D01*
X148847619Y-113333333D01*
X149752380Y-114285714D02*
X149752380Y-113714285D01*
X149752380Y-114000000D02*
X148752380Y-114000000D01*
X148895238Y-113904761D01*
X148990476Y-113809523D01*
X149038095Y-113714285D01*
%TO.C,D1*%
X151152380Y-130238095D02*
X150152380Y-130238095D01*
X151152380Y-130809523D02*
X150580952Y-130380952D01*
X150152380Y-130809523D02*
X150723809Y-130238095D01*
%TO.C,R5*%
X152702380Y-102023333D02*
X152226190Y-101690000D01*
X152702380Y-101451904D02*
X151702380Y-101451904D01*
X151702380Y-101832857D01*
X151750000Y-101928095D01*
X151797619Y-101975714D01*
X151892857Y-102023333D01*
X152035714Y-102023333D01*
X152130952Y-101975714D01*
X152178571Y-101928095D01*
X152226190Y-101832857D01*
X152226190Y-101451904D01*
X151702380Y-102928095D02*
X151702380Y-102451904D01*
X152178571Y-102404285D01*
X152130952Y-102451904D01*
X152083333Y-102547142D01*
X152083333Y-102785238D01*
X152130952Y-102880476D01*
X152178571Y-102928095D01*
X152273809Y-102975714D01*
X152511904Y-102975714D01*
X152607142Y-102928095D01*
X152654761Y-102880476D01*
X152702380Y-102785238D01*
X152702380Y-102547142D01*
X152654761Y-102451904D01*
X152607142Y-102404285D01*
%TO.C,D2*%
D12*
X152611904Y-112194523D02*
X151811904Y-112194523D01*
X151811904Y-112385000D01*
X151850000Y-112499285D01*
X151926190Y-112575476D01*
X152002380Y-112613571D01*
X152154761Y-112651666D01*
X152269047Y-112651666D01*
X152421428Y-112613571D01*
X152497619Y-112575476D01*
X152573809Y-112499285D01*
X152611904Y-112385000D01*
X152611904Y-112194523D01*
X151888095Y-112956428D02*
X151850000Y-112994523D01*
X151811904Y-113070714D01*
X151811904Y-113261190D01*
X151850000Y-113337380D01*
X151888095Y-113375476D01*
X151964285Y-113413571D01*
X152040476Y-113413571D01*
X152154761Y-113375476D01*
X152611904Y-112918333D01*
X152611904Y-113413571D01*
D11*
X150902380Y-108413095D02*
X149902380Y-108413095D01*
X150902380Y-108984523D02*
X150330952Y-108555952D01*
X149902380Y-108984523D02*
X150473809Y-108413095D01*
%TO.C,U1*%
X145051904Y-102262380D02*
X145051904Y-103071904D01*
X145004285Y-103167142D01*
X144956666Y-103214761D01*
X144861428Y-103262380D01*
X144670952Y-103262380D01*
X144575714Y-103214761D01*
X144528095Y-103167142D01*
X144480476Y-103071904D01*
X144480476Y-102262380D01*
X143480476Y-103262380D02*
X144051904Y-103262380D01*
X143766190Y-103262380D02*
X143766190Y-102262380D01*
X143861428Y-102405238D01*
X143956666Y-102500476D01*
X144051904Y-102548095D01*
%TO.C,C2*%
X144457142Y-113083333D02*
X144504761Y-113035714D01*
X144552380Y-112892857D01*
X144552380Y-112797619D01*
X144504761Y-112654761D01*
X144409523Y-112559523D01*
X144314285Y-112511904D01*
X144123809Y-112464285D01*
X143980952Y-112464285D01*
X143790476Y-112511904D01*
X143695238Y-112559523D01*
X143600000Y-112654761D01*
X143552380Y-112797619D01*
X143552380Y-112892857D01*
X143600000Y-113035714D01*
X143647619Y-113083333D01*
X143647619Y-113464285D02*
X143600000Y-113511904D01*
X143552380Y-113607142D01*
X143552380Y-113845238D01*
X143600000Y-113940476D01*
X143647619Y-113988095D01*
X143742857Y-114035714D01*
X143838095Y-114035714D01*
X143980952Y-113988095D01*
X144552380Y-113416666D01*
X144552380Y-114035714D01*
%TO.C,R3*%
X144956666Y-150752380D02*
X145290000Y-150276190D01*
X145528095Y-150752380D02*
X145528095Y-149752380D01*
X145147142Y-149752380D01*
X145051904Y-149800000D01*
X145004285Y-149847619D01*
X144956666Y-149942857D01*
X144956666Y-150085714D01*
X145004285Y-150180952D01*
X145051904Y-150228571D01*
X145147142Y-150276190D01*
X145528095Y-150276190D01*
X144623333Y-149752380D02*
X144004285Y-149752380D01*
X144337619Y-150133333D01*
X144194761Y-150133333D01*
X144099523Y-150180952D01*
X144051904Y-150228571D01*
X144004285Y-150323809D01*
X144004285Y-150561904D01*
X144051904Y-150657142D01*
X144099523Y-150704761D01*
X144194761Y-150752380D01*
X144480476Y-150752380D01*
X144575714Y-150704761D01*
X144623333Y-150657142D01*
%TO.C,R1*%
X144956666Y-153852380D02*
X145290000Y-153376190D01*
X145528095Y-153852380D02*
X145528095Y-152852380D01*
X145147142Y-152852380D01*
X145051904Y-152900000D01*
X145004285Y-152947619D01*
X144956666Y-153042857D01*
X144956666Y-153185714D01*
X145004285Y-153280952D01*
X145051904Y-153328571D01*
X145147142Y-153376190D01*
X145528095Y-153376190D01*
X144004285Y-153852380D02*
X144575714Y-153852380D01*
X144290000Y-153852380D02*
X144290000Y-152852380D01*
X144385238Y-152995238D01*
X144480476Y-153090476D01*
X144575714Y-153138095D01*
%TO.C,R9*%
X144976666Y-138352380D02*
X145310000Y-137876190D01*
X145548095Y-138352380D02*
X145548095Y-137352380D01*
X145167142Y-137352380D01*
X145071904Y-137400000D01*
X145024285Y-137447619D01*
X144976666Y-137542857D01*
X144976666Y-137685714D01*
X145024285Y-137780952D01*
X145071904Y-137828571D01*
X145167142Y-137876190D01*
X145548095Y-137876190D01*
X144500476Y-138352380D02*
X144310000Y-138352380D01*
X144214761Y-138304761D01*
X144167142Y-138257142D01*
X144071904Y-138114285D01*
X144024285Y-137923809D01*
X144024285Y-137542857D01*
X144071904Y-137447619D01*
X144119523Y-137400000D01*
X144214761Y-137352380D01*
X144405238Y-137352380D01*
X144500476Y-137400000D01*
X144548095Y-137447619D01*
X144595714Y-137542857D01*
X144595714Y-137780952D01*
X144548095Y-137876190D01*
X144500476Y-137923809D01*
X144405238Y-137971428D01*
X144214761Y-137971428D01*
X144119523Y-137923809D01*
X144071904Y-137876190D01*
X144024285Y-137780952D01*
%TO.C,R10*%
X138152380Y-102567142D02*
X137676190Y-102233809D01*
X138152380Y-101995714D02*
X137152380Y-101995714D01*
X137152380Y-102376666D01*
X137200000Y-102471904D01*
X137247619Y-102519523D01*
X137342857Y-102567142D01*
X137485714Y-102567142D01*
X137580952Y-102519523D01*
X137628571Y-102471904D01*
X137676190Y-102376666D01*
X137676190Y-101995714D01*
X138152380Y-103519523D02*
X138152380Y-102948095D01*
X138152380Y-103233809D02*
X137152380Y-103233809D01*
X137295238Y-103138571D01*
X137390476Y-103043333D01*
X137438095Y-102948095D01*
X137152380Y-104138571D02*
X137152380Y-104233809D01*
X137200000Y-104329047D01*
X137247619Y-104376666D01*
X137342857Y-104424285D01*
X137533333Y-104471904D01*
X137771428Y-104471904D01*
X137961904Y-104424285D01*
X138057142Y-104376666D01*
X138104761Y-104329047D01*
X138152380Y-104233809D01*
X138152380Y-104138571D01*
X138104761Y-104043333D01*
X138057142Y-103995714D01*
X137961904Y-103948095D01*
X137771428Y-103900476D01*
X137533333Y-103900476D01*
X137342857Y-103948095D01*
X137247619Y-103995714D01*
X137200000Y-104043333D01*
X137152380Y-104138571D01*
%TO.C,R8*%
X144956666Y-131952380D02*
X145290000Y-131476190D01*
X145528095Y-131952380D02*
X145528095Y-130952380D01*
X145147142Y-130952380D01*
X145051904Y-131000000D01*
X145004285Y-131047619D01*
X144956666Y-131142857D01*
X144956666Y-131285714D01*
X145004285Y-131380952D01*
X145051904Y-131428571D01*
X145147142Y-131476190D01*
X145528095Y-131476190D01*
X144385238Y-131380952D02*
X144480476Y-131333333D01*
X144528095Y-131285714D01*
X144575714Y-131190476D01*
X144575714Y-131142857D01*
X144528095Y-131047619D01*
X144480476Y-131000000D01*
X144385238Y-130952380D01*
X144194761Y-130952380D01*
X144099523Y-131000000D01*
X144051904Y-131047619D01*
X144004285Y-131142857D01*
X144004285Y-131190476D01*
X144051904Y-131285714D01*
X144099523Y-131333333D01*
X144194761Y-131380952D01*
X144385238Y-131380952D01*
X144480476Y-131428571D01*
X144528095Y-131476190D01*
X144575714Y-131571428D01*
X144575714Y-131761904D01*
X144528095Y-131857142D01*
X144480476Y-131904761D01*
X144385238Y-131952380D01*
X144194761Y-131952380D01*
X144099523Y-131904761D01*
X144051904Y-131857142D01*
X144004285Y-131761904D01*
X144004285Y-131571428D01*
X144051904Y-131476190D01*
X144099523Y-131428571D01*
X144194761Y-131380952D01*
%TO.C,R6*%
X144976666Y-135152380D02*
X145310000Y-134676190D01*
X145548095Y-135152380D02*
X145548095Y-134152380D01*
X145167142Y-134152380D01*
X145071904Y-134200000D01*
X145024285Y-134247619D01*
X144976666Y-134342857D01*
X144976666Y-134485714D01*
X145024285Y-134580952D01*
X145071904Y-134628571D01*
X145167142Y-134676190D01*
X145548095Y-134676190D01*
X144119523Y-134152380D02*
X144310000Y-134152380D01*
X144405238Y-134200000D01*
X144452857Y-134247619D01*
X144548095Y-134390476D01*
X144595714Y-134580952D01*
X144595714Y-134961904D01*
X144548095Y-135057142D01*
X144500476Y-135104761D01*
X144405238Y-135152380D01*
X144214761Y-135152380D01*
X144119523Y-135104761D01*
X144071904Y-135057142D01*
X144024285Y-134961904D01*
X144024285Y-134723809D01*
X144071904Y-134628571D01*
X144119523Y-134580952D01*
X144214761Y-134533333D01*
X144405238Y-134533333D01*
X144500476Y-134580952D01*
X144548095Y-134628571D01*
X144595714Y-134723809D01*
%TO.C,R4*%
X144956666Y-144552380D02*
X145290000Y-144076190D01*
X145528095Y-144552380D02*
X145528095Y-143552380D01*
X145147142Y-143552380D01*
X145051904Y-143600000D01*
X145004285Y-143647619D01*
X144956666Y-143742857D01*
X144956666Y-143885714D01*
X145004285Y-143980952D01*
X145051904Y-144028571D01*
X145147142Y-144076190D01*
X145528095Y-144076190D01*
X144099523Y-143885714D02*
X144099523Y-144552380D01*
X144337619Y-143504761D02*
X144575714Y-144219047D01*
X143956666Y-144219047D01*
%TO.C,R2*%
X144956666Y-147652380D02*
X145290000Y-147176190D01*
X145528095Y-147652380D02*
X145528095Y-146652380D01*
X145147142Y-146652380D01*
X145051904Y-146700000D01*
X145004285Y-146747619D01*
X144956666Y-146842857D01*
X144956666Y-146985714D01*
X145004285Y-147080952D01*
X145051904Y-147128571D01*
X145147142Y-147176190D01*
X145528095Y-147176190D01*
X144575714Y-146747619D02*
X144528095Y-146700000D01*
X144432857Y-146652380D01*
X144194761Y-146652380D01*
X144099523Y-146700000D01*
X144051904Y-146747619D01*
X144004285Y-146842857D01*
X144004285Y-146938095D01*
X144051904Y-147080952D01*
X144623333Y-147652380D01*
X144004285Y-147652380D01*
%TO.C,C3*%
X138657142Y-112983333D02*
X138704761Y-112935714D01*
X138752380Y-112792857D01*
X138752380Y-112697619D01*
X138704761Y-112554761D01*
X138609523Y-112459523D01*
X138514285Y-112411904D01*
X138323809Y-112364285D01*
X138180952Y-112364285D01*
X137990476Y-112411904D01*
X137895238Y-112459523D01*
X137800000Y-112554761D01*
X137752380Y-112697619D01*
X137752380Y-112792857D01*
X137800000Y-112935714D01*
X137847619Y-112983333D01*
X137752380Y-113316666D02*
X137752380Y-113935714D01*
X138133333Y-113602380D01*
X138133333Y-113745238D01*
X138180952Y-113840476D01*
X138228571Y-113888095D01*
X138323809Y-113935714D01*
X138561904Y-113935714D01*
X138657142Y-113888095D01*
X138704761Y-113840476D01*
X138752380Y-113745238D01*
X138752380Y-113459523D01*
X138704761Y-113364285D01*
X138657142Y-113316666D01*
%TO.C,C4*%
X151616666Y-76157142D02*
X151664285Y-76204761D01*
X151807142Y-76252380D01*
X151902380Y-76252380D01*
X152045238Y-76204761D01*
X152140476Y-76109523D01*
X152188095Y-76014285D01*
X152235714Y-75823809D01*
X152235714Y-75680952D01*
X152188095Y-75490476D01*
X152140476Y-75395238D01*
X152045238Y-75300000D01*
X151902380Y-75252380D01*
X151807142Y-75252380D01*
X151664285Y-75300000D01*
X151616666Y-75347619D01*
X150759523Y-75585714D02*
X150759523Y-76252380D01*
X150997619Y-75204761D02*
X151235714Y-75919047D01*
X150616666Y-75919047D01*
%TO.C,C5*%
X151516666Y-81957142D02*
X151564285Y-82004761D01*
X151707142Y-82052380D01*
X151802380Y-82052380D01*
X151945238Y-82004761D01*
X152040476Y-81909523D01*
X152088095Y-81814285D01*
X152135714Y-81623809D01*
X152135714Y-81480952D01*
X152088095Y-81290476D01*
X152040476Y-81195238D01*
X151945238Y-81100000D01*
X151802380Y-81052380D01*
X151707142Y-81052380D01*
X151564285Y-81100000D01*
X151516666Y-81147619D01*
X150611904Y-81052380D02*
X151088095Y-81052380D01*
X151135714Y-81528571D01*
X151088095Y-81480952D01*
X150992857Y-81433333D01*
X150754761Y-81433333D01*
X150659523Y-81480952D01*
X150611904Y-81528571D01*
X150564285Y-81623809D01*
X150564285Y-81861904D01*
X150611904Y-81957142D01*
X150659523Y-82004761D01*
X150754761Y-82052380D01*
X150992857Y-82052380D01*
X151088095Y-82004761D01*
X151135714Y-81957142D01*
%TO.C,C6*%
X142416666Y-80007142D02*
X142464285Y-80054761D01*
X142607142Y-80102380D01*
X142702380Y-80102380D01*
X142845238Y-80054761D01*
X142940476Y-79959523D01*
X142988095Y-79864285D01*
X143035714Y-79673809D01*
X143035714Y-79530952D01*
X142988095Y-79340476D01*
X142940476Y-79245238D01*
X142845238Y-79150000D01*
X142702380Y-79102380D01*
X142607142Y-79102380D01*
X142464285Y-79150000D01*
X142416666Y-79197619D01*
X141559523Y-79102380D02*
X141750000Y-79102380D01*
X141845238Y-79150000D01*
X141892857Y-79197619D01*
X141988095Y-79340476D01*
X142035714Y-79530952D01*
X142035714Y-79911904D01*
X141988095Y-80007142D01*
X141940476Y-80054761D01*
X141845238Y-80102380D01*
X141654761Y-80102380D01*
X141559523Y-80054761D01*
X141511904Y-80007142D01*
X141464285Y-79911904D01*
X141464285Y-79673809D01*
X141511904Y-79578571D01*
X141559523Y-79530952D01*
X141654761Y-79483333D01*
X141845238Y-79483333D01*
X141940476Y-79530952D01*
X141988095Y-79578571D01*
X142035714Y-79673809D01*
%TO.C,C7*%
X142466666Y-94057142D02*
X142514285Y-94104761D01*
X142657142Y-94152380D01*
X142752380Y-94152380D01*
X142895238Y-94104761D01*
X142990476Y-94009523D01*
X143038095Y-93914285D01*
X143085714Y-93723809D01*
X143085714Y-93580952D01*
X143038095Y-93390476D01*
X142990476Y-93295238D01*
X142895238Y-93200000D01*
X142752380Y-93152380D01*
X142657142Y-93152380D01*
X142514285Y-93200000D01*
X142466666Y-93247619D01*
X142133333Y-93152380D02*
X141466666Y-93152380D01*
X141895238Y-94152380D01*
%TO.C,D3*%
D12*
X143161904Y-118259523D02*
X142361904Y-118259523D01*
X142361904Y-118450000D01*
X142400000Y-118564285D01*
X142476190Y-118640476D01*
X142552380Y-118678571D01*
X142704761Y-118716666D01*
X142819047Y-118716666D01*
X142971428Y-118678571D01*
X143047619Y-118640476D01*
X143123809Y-118564285D01*
X143161904Y-118450000D01*
X143161904Y-118259523D01*
X142361904Y-118983333D02*
X142361904Y-119478571D01*
X142666666Y-119211904D01*
X142666666Y-119326190D01*
X142704761Y-119402380D01*
X142742857Y-119440476D01*
X142819047Y-119478571D01*
X143009523Y-119478571D01*
X143085714Y-119440476D01*
X143123809Y-119402380D01*
X143161904Y-119326190D01*
X143161904Y-119097619D01*
X143123809Y-119021428D01*
X143085714Y-118983333D01*
%TO.C,D4*%
X145761904Y-118259523D02*
X144961904Y-118259523D01*
X144961904Y-118450000D01*
X145000000Y-118564285D01*
X145076190Y-118640476D01*
X145152380Y-118678571D01*
X145304761Y-118716666D01*
X145419047Y-118716666D01*
X145571428Y-118678571D01*
X145647619Y-118640476D01*
X145723809Y-118564285D01*
X145761904Y-118450000D01*
X145761904Y-118259523D01*
X145228571Y-119402380D02*
X145761904Y-119402380D01*
X144923809Y-119211904D02*
X145495238Y-119021428D01*
X145495238Y-119516666D01*
%TO.C,J3*%
D11*
X146152380Y-60154761D02*
X146866666Y-60154761D01*
X147009523Y-60107142D01*
X147104761Y-60011904D01*
X147152380Y-59869047D01*
X147152380Y-59773809D01*
X147104761Y-60583333D02*
X147152380Y-60726190D01*
X147152380Y-60964285D01*
X147104761Y-61059523D01*
X147057142Y-61107142D01*
X146961904Y-61154761D01*
X146866666Y-61154761D01*
X146771428Y-61107142D01*
X146723809Y-61059523D01*
X146676190Y-60964285D01*
X146628571Y-60773809D01*
X146580952Y-60678571D01*
X146533333Y-60630952D01*
X146438095Y-60583333D01*
X146342857Y-60583333D01*
X146247619Y-60630952D01*
X146200000Y-60678571D01*
X146152380Y-60773809D01*
X146152380Y-61011904D01*
X146200000Y-61154761D01*
X146152380Y-61440476D02*
X146152380Y-62011904D01*
X147152380Y-61726190D02*
X146152380Y-61726190D01*
X147247619Y-62107142D02*
X147247619Y-62869047D01*
X146628571Y-63440476D02*
X146676190Y-63583333D01*
X146723809Y-63630952D01*
X146819047Y-63678571D01*
X146961904Y-63678571D01*
X147057142Y-63630952D01*
X147104761Y-63583333D01*
X147152380Y-63488095D01*
X147152380Y-63107142D01*
X146152380Y-63107142D01*
X146152380Y-63440476D01*
X146200000Y-63535714D01*
X146247619Y-63583333D01*
X146342857Y-63630952D01*
X146438095Y-63630952D01*
X146533333Y-63583333D01*
X146580952Y-63535714D01*
X146628571Y-63440476D01*
X146628571Y-63107142D01*
X146152380Y-64107142D02*
X146961904Y-64107142D01*
X147057142Y-64154761D01*
X147104761Y-64202380D01*
X147152380Y-64297619D01*
X147152380Y-64488095D01*
X147104761Y-64583333D01*
X147057142Y-64630952D01*
X146961904Y-64678571D01*
X146152380Y-64678571D01*
X147104761Y-65107142D02*
X147152380Y-65250000D01*
X147152380Y-65488095D01*
X147104761Y-65583333D01*
X147057142Y-65630952D01*
X146961904Y-65678571D01*
X146866666Y-65678571D01*
X146771428Y-65630952D01*
X146723809Y-65583333D01*
X146676190Y-65488095D01*
X146628571Y-65297619D01*
X146580952Y-65202380D01*
X146533333Y-65154761D01*
X146438095Y-65107142D01*
X146342857Y-65107142D01*
X146247619Y-65154761D01*
X146200000Y-65202380D01*
X146152380Y-65297619D01*
X146152380Y-65535714D01*
X146200000Y-65678571D01*
X148052380Y-62416666D02*
X148766666Y-62416666D01*
X148909523Y-62369047D01*
X149004761Y-62273809D01*
X149052380Y-62130952D01*
X149052380Y-62035714D01*
X148052380Y-62797619D02*
X148052380Y-63416666D01*
X148433333Y-63083333D01*
X148433333Y-63226190D01*
X148480952Y-63321428D01*
X148528571Y-63369047D01*
X148623809Y-63416666D01*
X148861904Y-63416666D01*
X148957142Y-63369047D01*
X149004761Y-63321428D01*
X149052380Y-63226190D01*
X149052380Y-62940476D01*
X149004761Y-62845238D01*
X148957142Y-62797619D01*
%TO.C,J5*%
X143310952Y-75812380D02*
X143310952Y-74812380D01*
X142834761Y-75812380D02*
X142834761Y-74812380D01*
X142596666Y-74812380D01*
X142453809Y-74860000D01*
X142358571Y-74955238D01*
X142310952Y-75050476D01*
X142263333Y-75240952D01*
X142263333Y-75383809D01*
X142310952Y-75574285D01*
X142358571Y-75669523D01*
X142453809Y-75764761D01*
X142596666Y-75812380D01*
X142834761Y-75812380D01*
X141263333Y-75717142D02*
X141310952Y-75764761D01*
X141453809Y-75812380D01*
X141549047Y-75812380D01*
X141691904Y-75764761D01*
X141787142Y-75669523D01*
X141834761Y-75574285D01*
X141882380Y-75383809D01*
X141882380Y-75240952D01*
X141834761Y-75050476D01*
X141787142Y-74955238D01*
X141691904Y-74860000D01*
X141549047Y-74812380D01*
X141453809Y-74812380D01*
X141310952Y-74860000D01*
X141263333Y-74907619D01*
X141072857Y-75907619D02*
X140310952Y-75907619D01*
X139739523Y-75288571D02*
X139596666Y-75336190D01*
X139549047Y-75383809D01*
X139501428Y-75479047D01*
X139501428Y-75621904D01*
X139549047Y-75717142D01*
X139596666Y-75764761D01*
X139691904Y-75812380D01*
X140072857Y-75812380D01*
X140072857Y-74812380D01*
X139739523Y-74812380D01*
X139644285Y-74860000D01*
X139596666Y-74907619D01*
X139549047Y-75002857D01*
X139549047Y-75098095D01*
X139596666Y-75193333D01*
X139644285Y-75240952D01*
X139739523Y-75288571D01*
X140072857Y-75288571D01*
X139072857Y-74812380D02*
X139072857Y-75621904D01*
X139025238Y-75717142D01*
X138977619Y-75764761D01*
X138882380Y-75812380D01*
X138691904Y-75812380D01*
X138596666Y-75764761D01*
X138549047Y-75717142D01*
X138501428Y-75621904D01*
X138501428Y-74812380D01*
X138072857Y-75764761D02*
X137930000Y-75812380D01*
X137691904Y-75812380D01*
X137596666Y-75764761D01*
X137549047Y-75717142D01*
X137501428Y-75621904D01*
X137501428Y-75526666D01*
X137549047Y-75431428D01*
X137596666Y-75383809D01*
X137691904Y-75336190D01*
X137882380Y-75288571D01*
X137977619Y-75240952D01*
X138025238Y-75193333D01*
X138072857Y-75098095D01*
X138072857Y-75002857D01*
X138025238Y-74907619D01*
X137977619Y-74860000D01*
X137882380Y-74812380D01*
X137644285Y-74812380D01*
X137501428Y-74860000D01*
X139882380Y-63846666D02*
X140596666Y-63846666D01*
X140739523Y-63799047D01*
X140834761Y-63703809D01*
X140882380Y-63560952D01*
X140882380Y-63465714D01*
X139882380Y-64799047D02*
X139882380Y-64322857D01*
X140358571Y-64275238D01*
X140310952Y-64322857D01*
X140263333Y-64418095D01*
X140263333Y-64656190D01*
X140310952Y-64751428D01*
X140358571Y-64799047D01*
X140453809Y-64846666D01*
X140691904Y-64846666D01*
X140787142Y-64799047D01*
X140834761Y-64751428D01*
X140882380Y-64656190D01*
X140882380Y-64418095D01*
X140834761Y-64322857D01*
X140787142Y-64275238D01*
%TO.C,U2*%
X141951904Y-86112380D02*
X141951904Y-86921904D01*
X141904285Y-87017142D01*
X141856666Y-87064761D01*
X141761428Y-87112380D01*
X141570952Y-87112380D01*
X141475714Y-87064761D01*
X141428095Y-87017142D01*
X141380476Y-86921904D01*
X141380476Y-86112380D01*
X140951904Y-86207619D02*
X140904285Y-86160000D01*
X140809047Y-86112380D01*
X140570952Y-86112380D01*
X140475714Y-86160000D01*
X140428095Y-86207619D01*
X140380476Y-86302857D01*
X140380476Y-86398095D01*
X140428095Y-86540952D01*
X140999523Y-87112380D01*
X140380476Y-87112380D01*
%TO.C,Q1*%
X155318571Y-142282857D02*
X155366190Y-142425714D01*
X155413809Y-142473333D01*
X155509047Y-142520952D01*
X155651904Y-142520952D01*
X155747142Y-142473333D01*
X155794761Y-142425714D01*
X155842380Y-142330476D01*
X155842380Y-141949523D01*
X154842380Y-141949523D01*
X154842380Y-142282857D01*
X154890000Y-142378095D01*
X154937619Y-142425714D01*
X155032857Y-142473333D01*
X155128095Y-142473333D01*
X155223333Y-142425714D01*
X155270952Y-142378095D01*
X155318571Y-142282857D01*
X155318571Y-141949523D01*
X155747142Y-143520952D02*
X155794761Y-143473333D01*
X155842380Y-143330476D01*
X155842380Y-143235238D01*
X155794761Y-143092380D01*
X155699523Y-142997142D01*
X155604285Y-142949523D01*
X155413809Y-142901904D01*
X155270952Y-142901904D01*
X155080476Y-142949523D01*
X154985238Y-142997142D01*
X154890000Y-143092380D01*
X154842380Y-143235238D01*
X154842380Y-143330476D01*
X154890000Y-143473333D01*
X154937619Y-143520952D01*
X154842380Y-144425714D02*
X154842380Y-143949523D01*
X155318571Y-143901904D01*
X155270952Y-143949523D01*
X155223333Y-144044761D01*
X155223333Y-144282857D01*
X155270952Y-144378095D01*
X155318571Y-144425714D01*
X155413809Y-144473333D01*
X155651904Y-144473333D01*
X155747142Y-144425714D01*
X155794761Y-144378095D01*
X155842380Y-144282857D01*
X155842380Y-144044761D01*
X155794761Y-143949523D01*
X155747142Y-143901904D01*
X155175714Y-145330476D02*
X155842380Y-145330476D01*
X154794761Y-145092380D02*
X155509047Y-144854285D01*
X155509047Y-145473333D01*
X154842380Y-145759047D02*
X154842380Y-146425714D01*
X155842380Y-145997142D01*
X153147619Y-144044761D02*
X153100000Y-143949523D01*
X153004761Y-143854285D01*
X152861904Y-143711428D01*
X152814285Y-143616190D01*
X152814285Y-143520952D01*
X153052380Y-143568571D02*
X153004761Y-143473333D01*
X152909523Y-143378095D01*
X152719047Y-143330476D01*
X152385714Y-143330476D01*
X152195238Y-143378095D01*
X152100000Y-143473333D01*
X152052380Y-143568571D01*
X152052380Y-143759047D01*
X152100000Y-143854285D01*
X152195238Y-143949523D01*
X152385714Y-143997142D01*
X152719047Y-143997142D01*
X152909523Y-143949523D01*
X153004761Y-143854285D01*
X153052380Y-143759047D01*
X153052380Y-143568571D01*
X153052380Y-144949523D02*
X153052380Y-144378095D01*
X153052380Y-144663809D02*
X152052380Y-144663809D01*
X152195238Y-144568571D01*
X152290476Y-144473333D01*
X152338095Y-144378095D01*
%TO.C,Q2*%
X155318571Y-149482857D02*
X155366190Y-149625714D01*
X155413809Y-149673333D01*
X155509047Y-149720952D01*
X155651904Y-149720952D01*
X155747142Y-149673333D01*
X155794761Y-149625714D01*
X155842380Y-149530476D01*
X155842380Y-149149523D01*
X154842380Y-149149523D01*
X154842380Y-149482857D01*
X154890000Y-149578095D01*
X154937619Y-149625714D01*
X155032857Y-149673333D01*
X155128095Y-149673333D01*
X155223333Y-149625714D01*
X155270952Y-149578095D01*
X155318571Y-149482857D01*
X155318571Y-149149523D01*
X155747142Y-150720952D02*
X155794761Y-150673333D01*
X155842380Y-150530476D01*
X155842380Y-150435238D01*
X155794761Y-150292380D01*
X155699523Y-150197142D01*
X155604285Y-150149523D01*
X155413809Y-150101904D01*
X155270952Y-150101904D01*
X155080476Y-150149523D01*
X154985238Y-150197142D01*
X154890000Y-150292380D01*
X154842380Y-150435238D01*
X154842380Y-150530476D01*
X154890000Y-150673333D01*
X154937619Y-150720952D01*
X154842380Y-151625714D02*
X154842380Y-151149523D01*
X155318571Y-151101904D01*
X155270952Y-151149523D01*
X155223333Y-151244761D01*
X155223333Y-151482857D01*
X155270952Y-151578095D01*
X155318571Y-151625714D01*
X155413809Y-151673333D01*
X155651904Y-151673333D01*
X155747142Y-151625714D01*
X155794761Y-151578095D01*
X155842380Y-151482857D01*
X155842380Y-151244761D01*
X155794761Y-151149523D01*
X155747142Y-151101904D01*
X155175714Y-152530476D02*
X155842380Y-152530476D01*
X154794761Y-152292380D02*
X155509047Y-152054285D01*
X155509047Y-152673333D01*
X154842380Y-152959047D02*
X154842380Y-153625714D01*
X155842380Y-153197142D01*
X153147619Y-151244761D02*
X153100000Y-151149523D01*
X153004761Y-151054285D01*
X152861904Y-150911428D01*
X152814285Y-150816190D01*
X152814285Y-150720952D01*
X153052380Y-150768571D02*
X153004761Y-150673333D01*
X152909523Y-150578095D01*
X152719047Y-150530476D01*
X152385714Y-150530476D01*
X152195238Y-150578095D01*
X152100000Y-150673333D01*
X152052380Y-150768571D01*
X152052380Y-150959047D01*
X152100000Y-151054285D01*
X152195238Y-151149523D01*
X152385714Y-151197142D01*
X152719047Y-151197142D01*
X152909523Y-151149523D01*
X153004761Y-151054285D01*
X153052380Y-150959047D01*
X153052380Y-150768571D01*
X152147619Y-151578095D02*
X152100000Y-151625714D01*
X152052380Y-151720952D01*
X152052380Y-151959047D01*
X152100000Y-152054285D01*
X152147619Y-152101904D01*
X152242857Y-152149523D01*
X152338095Y-152149523D01*
X152480952Y-152101904D01*
X153052380Y-151530476D01*
X153052380Y-152149523D01*
%TO.C,Q3*%
X148488571Y-87552857D02*
X148536190Y-87695714D01*
X148583809Y-87743333D01*
X148679047Y-87790952D01*
X148821904Y-87790952D01*
X148917142Y-87743333D01*
X148964761Y-87695714D01*
X149012380Y-87600476D01*
X149012380Y-87219523D01*
X148012380Y-87219523D01*
X148012380Y-87552857D01*
X148060000Y-87648095D01*
X148107619Y-87695714D01*
X148202857Y-87743333D01*
X148298095Y-87743333D01*
X148393333Y-87695714D01*
X148440952Y-87648095D01*
X148488571Y-87552857D01*
X148488571Y-87219523D01*
X148917142Y-88790952D02*
X148964761Y-88743333D01*
X149012380Y-88600476D01*
X149012380Y-88505238D01*
X148964761Y-88362380D01*
X148869523Y-88267142D01*
X148774285Y-88219523D01*
X148583809Y-88171904D01*
X148440952Y-88171904D01*
X148250476Y-88219523D01*
X148155238Y-88267142D01*
X148060000Y-88362380D01*
X148012380Y-88505238D01*
X148012380Y-88600476D01*
X148060000Y-88743333D01*
X148107619Y-88790952D01*
X148012380Y-89695714D02*
X148012380Y-89219523D01*
X148488571Y-89171904D01*
X148440952Y-89219523D01*
X148393333Y-89314761D01*
X148393333Y-89552857D01*
X148440952Y-89648095D01*
X148488571Y-89695714D01*
X148583809Y-89743333D01*
X148821904Y-89743333D01*
X148917142Y-89695714D01*
X148964761Y-89648095D01*
X149012380Y-89552857D01*
X149012380Y-89314761D01*
X148964761Y-89219523D01*
X148917142Y-89171904D01*
X148345714Y-90600476D02*
X149012380Y-90600476D01*
X147964761Y-90362380D02*
X148679047Y-90124285D01*
X148679047Y-90743333D01*
X148012380Y-91029047D02*
X148012380Y-91695714D01*
X149012380Y-91267142D01*
X151897619Y-89314761D02*
X151850000Y-89219523D01*
X151754761Y-89124285D01*
X151611904Y-88981428D01*
X151564285Y-88886190D01*
X151564285Y-88790952D01*
X151802380Y-88838571D02*
X151754761Y-88743333D01*
X151659523Y-88648095D01*
X151469047Y-88600476D01*
X151135714Y-88600476D01*
X150945238Y-88648095D01*
X150850000Y-88743333D01*
X150802380Y-88838571D01*
X150802380Y-89029047D01*
X150850000Y-89124285D01*
X150945238Y-89219523D01*
X151135714Y-89267142D01*
X151469047Y-89267142D01*
X151659523Y-89219523D01*
X151754761Y-89124285D01*
X151802380Y-89029047D01*
X151802380Y-88838571D01*
X150802380Y-89600476D02*
X150802380Y-90219523D01*
X151183333Y-89886190D01*
X151183333Y-90029047D01*
X151230952Y-90124285D01*
X151278571Y-90171904D01*
X151373809Y-90219523D01*
X151611904Y-90219523D01*
X151707142Y-90171904D01*
X151754761Y-90124285D01*
X151802380Y-90029047D01*
X151802380Y-89743333D01*
X151754761Y-89648095D01*
X151707142Y-89600476D01*
%TD*%
M02*
